<?xml version="1.0" encoding="UTF-8" standalone="no"?>
<svg width="40px" height="40px" viewBox="0 0 40 40" version="1.1" xmlns="http://www.w3.org/2000/svg" xmlns:xlink="http://www.w3.org/1999/xlink">
    <!-- Generator: Sketch 43.2 (39069) - http://www.bohemiancoding.com/sketch -->
    <title>帐号管理</title>
    <desc>Created with Sketch.</desc>
    <defs></defs>
    <g id="Page-1" stroke="none" stroke-width="1" fill="none" fill-rule="evenodd" stroke-linejoin="round">
        <g id="帐号管理" stroke="#2CB5DF" fill="#2CB5DF">
            <path d="M26.8361697,25.0040836 C27.1667815,24.8966769 27.5100401,24.8063735 27.8638554,24.7347051 L27.6922447,23.0894687 L27.768745,23.0894687 C26.6593667,22.1898548 25.9234289,20.6096092 25.9234289,18.8104351 C25.9234289,16.0108988 27.7052619,13.7414262 29.9032643,13.7414262 C32.1012668,13.7414262 33.8830998,16.0108988 33.8830998,18.8104351 C33.8830998,20.6296205 33.1306999,22.2249803 32.0006284,23.1192334 L31.8323949,24.7320921 C34.8513762,25.3392924 37.1047305,27.3026269 37.296875,29.6725973 L31.7029089,29.6725973 C30.7075184,27.7455698 28.9963295,26.117875 26.8361697,25.0040836 Z M13.4494545,24.8805641 C12.9117941,24.5689524 12.325216,24.3249498 11.7030813,24.1611376 C11.6852226,23.7006694 11.6410588,23.0072058 11.9311845,22.598246 C12.149023,22.2911819 14.2026998,22.598246 14.2026998,22.598246 C14.2026998,22.598246 13.3352518,21.2100306 13.3641957,20.8764055 C13.4199035,20.2342848 13.3641957,18.9244473 13.3641957,18.2386189 C13.3641957,16.6080461 13.4081876,15.1534347 12.7270937,14.1169956 C12.5110005,13.7881608 12.2359114,13.510759 11.9311845,13.2852549 C11.7667097,13.1635402 11.3331874,13.2852549 11.3331874,13.2852549 C11.3331874,13.2852549 11.0878037,12.8104934 10.9219612,12.7522395 C10.5483476,12.6210036 10.1756787,12.5550623 9.8448157,12.5550623 C8.84353033,12.5550623 7.46592823,13.0330648 6.82506195,14.1169956 C6.22187557,15.1371965 6.32543568,16.7166842 6.32543568,18.2386189 C6.32543568,18.9821544 6.34839168,19.9491439 6.50916225,20.6000635 C6.63072681,21.0922478 5.67114916,22.9193254 5.67114916,22.9193254 C5.67114916,22.9193254 7.39068819,22.3331387 7.58673546,22.598246 C7.72745698,22.7885384 7.74714117,23.6518675 7.86596987,24.1936269 C5.26667238,24.9262116 3.31253245,27.0653003 3,29.6725973 L8.3370063,29.6725973 C9.36984666,27.6730688 11.1733598,25.9958204 13.4494545,24.8805641 Z" id="Combined-Shape"></path>
            <path d="M32.3619631,32.4389648 C31.7273059,27.8581272 27.3955363,24.8240422 22.7371953,23.9444232 C22.754701,23.0055402 22.2992195,21.3347233 22.6363054,20.6740856 C23.1046568,19.756187 23.8797205,18.7531092 24.2343518,17.3164342 C24.588983,15.8797591 24.7509851,16.2019686 24.7642452,15.5329916 C24.7683404,15.3263883 25.0736597,15.5586756 25.0736597,15.3439913 C25.0736597,15.0836899 25.2312412,13.6829935 25.2312412,13.6829935 C25.2312412,13.6829935 24.9039979,13.5679535 24.9079148,13.344499 C24.9499921,10.9439889 25.2573021,9.64975841 24.9079148,8.69388397 C24.7386726,8.2308614 23.305318,6.91537502 23.029203,6.79001436 C22.7561385,6.66603865 22.4924722,6.87343038 22.2000195,6.79001436 C21.6044296,6.62013484 21.0152549,6 20.3599555,6 C17.9467217,6 16.4280328,6.92831492 15.3297175,9.19170592 C14.8130136,10.2565211 15.3217073,11.8075807 14.9931579,13.344499 C14.9168297,13.7015537 14.6714194,13.7663814 14.698251,14.1244832 C14.7107758,14.2916424 14.8525798,15.0956006 14.8525798,15.0956006 C14.8525798,15.0956006 15.2943979,15.5315003 15.3297175,15.7496121 C15.5648462,17.2016208 16.7475344,18.966805 17.2976063,20.2986134 C17.7467931,21.3861639 17.2432758,22.964823 17.3406281,23.91754 C12.7351984,24.7607659 8.66767966,27.8102325 8.0785204,32.4389648 L32.3619631,32.4389648 Z" id="Combined-Shape"></path>
        </g>
    </g>
</svg>