<?xml version="1.0" encoding="UTF-8" standalone="no"?>
<svg width="40px" height="40px" viewBox="0 0 40 40" version="1.1" xmlns="http://www.w3.org/2000/svg" xmlns:xlink="http://www.w3.org/1999/xlink">
    <!-- Generator: Sketch 43.2 (39069) - http://www.bohemiancoding.com/sketch -->
    <title>管理站</title>
    <desc>Created with Sketch.</desc>
    <defs>
        <path d="M17.0947379,18.5226748 C17.8351637,19.1640362 18.766568,19.5554167 19.7643853,19.5554167 C20.7622027,19.5554167 21.693607,19.1640362 22.4340328,18.5226748 C25.1237029,19.6659393 26.6736287,22.6094786 26.5903613,26.3910049 L12.9384094,26.3910049 C12.855142,22.6094786 14.4050678,19.6659393 17.0947379,18.5226748 Z" id="path-1"></path>
        <ellipse id="path-2" cx="19.8424741" cy="15.159665" rx="3.59355469" ry="3.57651367"></ellipse>
        <polygon id="path-3" points="19.7307104 19.8444888 20.8929098 21.1932765 19.6984847 24.2077889 18.5685109 21.1932765"></polygon>
    </defs>
    <g id="Page-1" stroke="none" stroke-width="1" fill="none" fill-rule="evenodd">
        <g id="管理站">
            <path d="M18.3574853,37.6942969 C18.8879556,37.7411888 19.4250545,37.7651367 19.9677734,37.7651367 C20.4824108,37.7651367 20.9919947,37.743603 21.4956652,37.7013914 C22.0081835,36.5181901 22.411665,35.1597644 22.9594226,35.0519193 C23.529141,34.9397505 24.6846701,35.9658867 25.7531522,36.8179254 C26.6069471,36.5291038 27.4318793,36.178124 28.2225063,35.7704031 C28.2073372,34.4894018 28.1075807,33.0477882 28.5783118,32.734152 C29.0508663,32.4193011 30.4218267,32.998911 31.6701795,33.4526467 C32.3569789,32.8654347 32.9986963,32.2274651 33.5894575,31.5445842 C33.1398809,30.2953618 32.5641085,28.9227837 32.8805911,28.4522746 C33.2015327,27.9751364 34.6913049,28.0256386 35.9898456,27.9847284 C36.385677,27.2109166 36.7265784,26.4046078 37.0074377,25.57089 C36.150327,24.5480734 35.095107,23.4350545 35.2094018,22.8600308 C35.3202673,22.3022603 36.7126102,21.7337401 37.8906778,21.1562096 C37.920423,20.7355116 37.9355469,20.3107978 37.9355469,19.8825684 C37.9355469,19.4188475 37.9178122,18.9592492 37.882981,18.5044086 C36.7065542,17.9281745 35.3200259,17.3609153 35.2094018,16.804359 C35.0974531,16.2411384 36.1075004,15.0994766 36.9544194,14.0392411 C36.6566519,13.1816719 36.2951714,12.3536793 35.8756106,11.5608692 C34.6052784,11.5803878 33.192159,11.6753176 32.8805911,11.2121152 C32.5629628,10.739903 33.0658484,9.33339708 33.4470001,8.05786564 C32.8477759,7.38178143 32.1980029,6.75113053 31.5035661,6.17176993 C30.3295722,6.64684886 29.0481816,7.24330005 28.5783118,6.93023781 C28.1120975,6.61961116 28.1355941,5.20044601 28.0896518,3.9269191 C27.2820254,3.5188961 26.43926,3.16982584 25.5670739,2.88539935 C24.5762998,3.73042849 23.519606,4.72276205 22.9594226,4.61247051 C22.4221942,4.50669844 22.0181494,3.21573563 21.5144182,2.06532677 C21.0046446,2.02207166 20.4887988,2 19.9677734,2 C19.410854,2 18.8598526,2.02521749 18.3158589,2.07456776 C17.8140066,3.22263825 17.4106878,4.50698157 16.8748973,4.61247051 C16.319073,4.72190381 15.2838272,3.74580548 14.3082628,2.9051524 C13.4269034,3.19602896 12.5758155,3.55298804 11.7609273,3.97012964 C11.7085229,5.23236583 11.7169562,6.62311995 11.2560082,6.93023781 C10.7937254,7.23824502 9.46476997,6.7420978 8.23251511,6.34064684 C7.52704836,6.94675358 6.86944713,7.60654116 6.26611795,8.31363345 C6.71617939,9.48948608 7.26219557,10.7535233 6.95372891,11.2121152 C6.64487284,11.671286 5.22149945,11.712211 3.93080643,11.8095926 C3.51582602,12.6245377 3.16171345,13.4753799 2.87442144,14.3561947 C3.73827569,15.2786864 4.73443152,16.2533909 4.62491815,16.804359 C4.51686917,17.3479596 3.20320145,17.9017707 2.05569188,18.4641821 C2.01879608,18.9321462 2,19.4051727 2,19.8825684 C2,20.3244093 2.01610061,20.7625076 2.04774975,21.1963138 C3.19713156,21.7600629 4.51661981,22.3151757 4.62491815,22.8600308 C4.73595217,23.4186494 3.71039822,24.3869738 2.83851608,25.2976111 C3.114069,26.1617879 3.45381639,26.9975161 3.85218436,27.7992483 C5.16310615,27.9243943 6.63858757,27.9837596 6.95372891,28.4522746 C7.27157764,28.9248147 6.60613499,30.1328538 6.0821628,31.232408 C6.6458727,31.9147417 7.2593661,32.554795 7.91711531,33.1470664 C9.26242402,32.8453185 10.7725599,32.4120428 11.2560082,32.734152 C11.7300458,33.0499912 11.7076654,34.50971 11.7655511,35.7973731 C12.5518834,36.1996097 13.371901,36.5458162 14.2202802,36.8306941 C15.2210234,35.9761776 16.3023301,34.9391896 16.8748973,35.0519193 C17.4215605,35.159549 17.8361186,36.5127666 18.3574853,37.6942969 Z" id="齿轮" stroke="#2CB5DF" fill="#2CB5DF"></path>
            <ellipse id="齿轮内测" stroke="#FFFFFF" fill="#FFFFFF" cx="19.8793649" cy="19.8050538" rx="12.5774414" ry="12.5177979"></ellipse>
            <g id="身体">
                <use fill="#2CB5DF" fill-rule="evenodd" xlink:href="#path-1"></use>
                <path stroke="#2CB5DF" stroke-width="1" d="M17.0206226,19.106099 C17.8245746,19.7163232 18.7775491,20.0554167 19.7643853,20.0554167 C20.7512216,20.0554167 21.7041961,19.7163232 22.5081481,19.106099 C24.7140031,20.1868182 26.0367357,22.6659806 26.0917761,25.8910049 L13.4369946,25.8910049 C13.492035,22.6659806 14.8147676,20.1868182 17.0206226,19.106099 Z"></path>
            </g>
            <g id="头部">
                <use fill="#2CB5DF" fill-rule="evenodd" xlink:href="#path-2"></use>
                <ellipse stroke="#2CB5DF" stroke-width="1" cx="19.8424741" cy="15.159665" rx="3.09355469" ry="3.07651367"></ellipse>
            </g>
            <g id="红领巾">
                <use fill="#FFFFFF" fill-rule="evenodd" xlink:href="#path-3"></use>
                <path stroke="#FFFFFF" stroke-width="1" d="M19.7307104,20.6104637 L20.3166015,21.2904183 L19.7114214,22.817783 L19.1406923,21.2952078 L19.7307104,20.6104637 Z"></path>
            </g>
        </g>
    </g>
</svg>