<?xml version="1.0" encoding="UTF-8" standalone="no"?>
<svg width="40px" height="40px" viewBox="0 0 40 40" version="1.1" xmlns="http://www.w3.org/2000/svg" xmlns:xlink="http://www.w3.org/1999/xlink">
    <!-- Generator: Sketch 43.2 (39069) - http://www.bohemiancoding.com/sketch -->
    <title>作业</title>
    <desc>Created with Sketch.</desc>
    <defs></defs>
    <g id="Page-1" stroke="none" stroke-width="1" fill="none" fill-rule="evenodd">
        <g id="作业">
            <path d="M3,8.89692164 C3,8.89692164 7.25738525,7 11.5147705,7 C15.7721558,7 20.029541,9.03241604 20.029541,9.03241604 C20.029541,9.03241604 24.2869263,7 28.5443115,7 C32.8016968,7 37.059082,8.89692164 37.059082,8.89692164 L37.059082,34.0988806 C37.059082,34.0988806 32.8016968,32.201959 28.5443115,32.201959 C24.2869263,32.201959 20.029541,34.234375 20.029541,34.234375 C20.029541,34.234375 15.7721558,32.201959 11.5147705,32.201959 C7.25738525,32.201959 3,34.0988806 3,34.0988806 L3,8.89692164 Z" id="Rectangle" stroke="#2CB5DF" fill="#2CB5DF" stroke-linejoin="round"></path>
            <polygon id="Rectangle-2" stroke="#FFFFFF" stroke-linejoin="round" points="18.2503352 15.3526741 20.0930841 12.7192187 21.9358329 15.3526741 21.9358329 26.8106367 18.2503352 26.8106367"></polygon>
            <path d="M19.5,17.6891535 L19.5,24.599368" id="Line" stroke="#FFFFFF" stroke-width="0.5" stroke-linecap="square"></path>
            <path d="M20.5,17.6891535 L20.5,24.599368" id="Line" stroke="#FFFFFF" stroke-width="0.5" stroke-linecap="square"></path>
            <rect id="Rectangle-3" stroke="#FFFFFF" fill="#FFFFFF" stroke-linejoin="round" x="18.2503352" y="27.9704688" width="3.68549768" height="1.62593284"></rect>
            <path d="M18.5045075,15.5 L21.8092432,15.5" id="Path-2" stroke="#FFFFFF"></path>
            <path d="M20,8.97415345 L20,10.8710751" id="Line" stroke="#FFFFFF" stroke-linecap="round"></path>
            <path d="M20,32.1233722 L20,34.0202938" id="Line" stroke="#FFFFFF" stroke-linecap="round"></path>
            <path d="M6.05006705,14.892549 C6.05006705,14.892549 8.59178959,13.8085938 11.1335121,13.8085938 C13.6752347,13.8085938 16.2169572,14.892549 16.2169572,14.892549" id="Line" stroke="#FFFFFF" stroke-linecap="round"></path>
            <path d="M6.05006705,18.9777052 C6.05006705,18.9777052 8.59178959,17.89375 11.1335121,17.89375 C13.6752347,17.89375 16.2169572,18.9777052 16.2169572,18.9777052" id="Line" stroke="#FFFFFF" stroke-linecap="round"></path>
            <path d="M6.05006705,22.7905177 C6.05006705,22.7905177 8.59178959,21.7065625 11.1335121,21.7065625 C13.6752347,21.7065625 16.2169572,22.7905177 16.2169572,22.7905177" id="Line" stroke="#FFFFFF" stroke-linecap="round"></path>
            <path d="M6.05006705,26.6033302 C6.05006705,26.6033302 8.59178959,25.519375 11.1335121,25.519375 C13.6752347,25.519375 16.2169572,26.6033302 16.2169572,26.6033302" id="Line" stroke="#FFFFFF" stroke-linecap="round"></path>
            <path d="M23.8421248,14.892549 C23.8421248,14.892549 26.3838474,13.8085938 28.9255699,13.8085938 C31.4672924,13.8085938 34.009015,14.892549 34.009015,14.892549" id="Line" stroke="#FFFFFF" stroke-linecap="round"></path>
            <path d="M24.0962971,18.7053615 C24.0962971,18.7053615 26.6380196,17.6214062 29.1797422,17.6214062 C31.7214647,17.6214062 34.2631872,18.7053615 34.2631872,18.7053615" id="Line" stroke="#FFFFFF" stroke-linecap="round"></path>
            <path d="M24.0962971,22.518174 C24.0962971,22.518174 26.6380196,21.4342187 29.1797422,21.4342187 C31.7214647,21.4342187 34.2631872,22.518174 34.2631872,22.518174" id="Line" stroke="#FFFFFF" stroke-linecap="round"></path>
            <path d="M24.0962971,26.6033302 C24.0962971,26.6033302 26.6380196,25.519375 29.1797422,25.519375 C31.7214647,25.519375 34.2631872,26.6033302 34.2631872,26.6033302" id="Line" stroke="#FFFFFF" stroke-linecap="round"></path>
        </g>
    </g>
</svg>