<?xml version="1.0" encoding="UTF-8" standalone="no"?>
<svg width="40px" height="40px" viewBox="0 0 40 40" version="1.1" xmlns="http://www.w3.org/2000/svg" xmlns:xlink="http://www.w3.org/1999/xlink">
    <!-- Generator: Sketch 43.2 (39069) - http://www.bohemiancoding.com/sketch -->
    <title>教务设置</title>
    <desc>Created with Sketch.</desc>
    <defs></defs>
    <g id="Page-1" stroke="none" stroke-width="1" fill="none" fill-rule="evenodd">
        <g id="教务设置">
            <path d="M21.1198664,16.779292 C20.5914487,15.6922568 20.2946686,14.4692004 20.2946686,13.176022 C20.2946686,8.66052975 23.9131651,5 28.3768067,5 C29.5030638,5 30.5755153,5.23304533 31.5496109,5.65406828 C31.4064377,5.75626126 31.2697801,5.87158927 31.1413074,6.00006203 L26.2790649,10.8623045 C25.0240393,12.1173301 25.0208591,14.167441 26.2833676,15.4299495 C27.5433071,16.6898891 29.5908804,16.6943844 30.8510126,15.4342522 L35.7132551,10.5720097 C35.7972429,10.488022 35.8756244,10.4004734 35.9483953,10.3098385 C36.278464,11.2017553 36.4589448,12.167567 36.4589448,13.176022 C36.4589448,17.6915143 32.8404483,21.3520441 28.3768067,21.3520441 C27.2959569,21.3520441 26.2646617,21.1374113 25.3222971,20.7479794 C25.170472,21.185818 24.9193486,21.5973275 24.5686037,21.9480724 L11.654121,34.8625551 C10.4181824,36.0984937 8.41074253,36.0949064 7.17600177,34.8601656 C5.93874344,33.6229073 5.93318103,31.6224776 7.17361228,30.3820463 L20.0880949,17.4675637 C20.3928321,17.1628265 20.7444714,16.9334445 21.1198664,16.779292 Z" id="Combined-Shape" stroke="#2CB5DF" fill="#2CB5DF" stroke-linejoin="round"></path>
            <path d="M32.3631976,32.2520096 C33.1209818,33.0185964 33.1214201,34.2610358 32.3638429,35.0274133 L30.9005398,36.5077144 C30.143112,37.2739407 28.9155994,37.2744673 28.1570057,36.5070616 L20.5685833,28.8304904 C19.8107991,28.0639036 19.8103607,26.8214642 20.567938,26.0550867 L22.031241,24.5747856 C22.7886689,23.8085593 24.0161815,23.8080327 24.7747752,24.5754384" id="Rectangle-3" fill="#2CB5DF"></path>
            <ellipse id="Oval-2" fill="#FFFFFF" cx="9.96985657" cy="31.9811226" rx="1" ry="1"></ellipse>
            <path d="M29.2940664,34.9968198 C29.3949804,35.0989061 29.3956144,35.2637794 29.2939095,35.3666656 L29.2939095,35.3666656 C29.1929088,35.4688396 29.0289923,35.4686756 28.9283106,35.3668243 L23.0759037,29.4464346 C22.9749897,29.3443483 22.9743558,29.1794751 23.0760606,29.0765888 L23.0760606,29.0765888 C23.1770613,28.9744149 23.3409778,28.9745788 23.4416596,29.0764301" id="Rectangle-4" fill="#FFFFFF"></path>
            <path d="M31.2940664,32.9968198 C31.3949804,33.0989061 31.3956144,33.2637794 31.2939095,33.3666656 L31.2939095,33.3666656 C31.1929088,33.4688396 31.0289923,33.4686756 30.9283106,33.3668243 L25.0759037,27.4464346 C24.9749897,27.3443483 24.9743558,27.1794751 25.0760606,27.0765888 L25.0760606,27.0765888 C25.1770613,26.9744149 25.3409778,26.9745788 25.4416596,27.0764301" id="Rectangle-4" fill="#FFFFFF"></path>
            <polyline id="Rectangle-5" fill="#2CB5DF" points="17.5217595 19.932926 15.7844193 21.6904475 6.45493277 12.2525875 4.25889036 11.1633545 3 8.75752147 4.73734013 7 7.23405064 8.41689985 8.30837323 10.612515"></polyline>
        </g>
    </g>
</svg>