<?xml version="1.0" encoding="UTF-8" standalone="no"?>
<svg width="40px" height="40px" viewBox="0 0 40 40" version="1.1" xmlns="http://www.w3.org/2000/svg" xmlns:xlink="http://www.w3.org/1999/xlink">
    <!-- Generator: Sketch 43.2 (39069) - http://www.bohemiancoding.com/sketch -->
    <title>物资</title>
    <desc>Created with Sketch.</desc>
    <defs></defs>
    <g id="Page-1" stroke="none" stroke-width="1" fill="none" fill-rule="evenodd">
        <g id="物资">
            <path d="M3.00222517,13.3762872 L3,13.3762872 L3,7.95774073 L3.00222517,7.95774073 C3.00074428,7.97775668 3,7.99782613 3,8.0179468 C3,9.51423709 7.11608275,10.72722 12.1935281,10.72722 C17.2709735,10.72722 21.3870563,9.51423709 21.3870563,8.0179468 C21.3870563,7.99782613 21.386312,7.97775668 21.3848311,7.95774073 L21.3870563,7.95774073 L21.3870563,13.3762872 L21.3848311,13.3762872 C21.386312,13.3963032 21.3870563,13.4163726 21.3870563,13.4364933 C21.3870563,14.9327836 17.2709735,16.1457665 12.1935281,16.1457665 C7.11608275,16.1457665 3,14.9327836 3,13.4364933 C3,13.4163726 3.00074428,13.3963032 3.00222517,13.3762872 Z" id="Combined-Shape" stroke="#2CB5DF" fill="#2CB5DF"></path>
            <path d="M3.00222517,20.1368374 L3,20.1368374 L3,14.718291 L3.00222517,14.718291 C3.00074428,14.7383069 3,14.7583764 3,14.778497 C3,16.2747873 7.11608275,17.4877703 12.1935281,17.4877703 C17.2709735,17.4877703 21.3870563,16.2747873 21.3870563,14.778497 C21.3870563,14.7583764 21.386312,14.7383069 21.3848311,14.718291 L21.3870563,14.718291 L21.3870563,20.1368374 L21.3848311,20.1368374 C21.386312,20.1568534 21.3870563,20.1769228 21.3870563,20.1970435 C21.3870563,21.6933338 17.2709735,22.9063167 12.1935281,22.9063167 C7.11608275,22.9063167 3,21.6933338 3,20.1970435 C3,20.1769228 3.00074428,20.1568534 3.00222517,20.1368374 Z" id="Combined-Shape" stroke="#2CB5DF" fill="#2CB5DF"></path>
            <path d="M3.00222517,27.0185469 L3,27.0185469 L3,21.6000004 L3.00222517,21.6000004 C3.00074428,21.6200163 3,21.6400858 3,21.6602065 C3,23.1564967 7.11608275,24.3694797 12.1935281,24.3694797 C17.2709735,24.3694797 21.3870563,23.1564967 21.3870563,21.6602065 C21.3870563,21.6400858 21.386312,21.6200163 21.3848311,21.6000004 L21.3870563,21.6000004 L21.3870563,27.0185469 L21.3848311,27.0185469 C21.386312,27.0385628 21.3870563,27.0586323 21.3870563,27.0787529 C21.3870563,28.5750432 17.2709735,29.7880262 12.1935281,29.7880262 C7.11608275,29.7880262 3,28.5750432 3,27.0787529 C3,27.0586323 3.00074428,27.0385628 3.00222517,27.0185469 Z" id="Combined-Shape" stroke="#2CB5DF" fill="#2CB5DF"></path>
            <path d="M3.00222517,33.9185465 L3,33.9185465 L3,28.5 L3.00222517,28.5 C3.00074428,28.520016 3,28.5400854 3,28.5602061 C3,30.0564964 7.11608275,31.2694793 12.1935281,31.2694793 C17.2709735,31.2694793 21.3870563,30.0564964 21.3870563,28.5602061 C21.3870563,28.5400854 21.386312,28.520016 21.3848311,28.5 L21.3870563,28.5 L21.3870563,33.9185465 L21.3848311,33.9185465 C21.386312,33.9385624 21.3870563,33.9586319 21.3870563,33.9787525 C21.3870563,35.4750428 17.2709735,36.6880258 12.1935281,36.6880258 C7.11608275,36.6880258 3,35.4750428 3,33.9787525 C3,33.9586319 3.00074428,33.9385624 3.00222517,33.9185465 Z" id="Combined-Shape" stroke="#2CB5DF" fill="#2CB5DF"></path>
            <ellipse id="Oval" stroke="#FFFFFF" fill="#2CB5DF" cx="12.1935281" cy="7.70927324" rx="9.19352813" ry="2.70927324"></ellipse>
            <rect id="Combined-Shape" stroke="#2CB5DF" fill="#2CB5DF" x="23.25" y="27.3199221" width="14.8000002" height="8.32610429"></rect>
            <polygon id="Combined-Shape" stroke="#2CB5DF" fill="#2CB5DF" points="25.5 21 35.886487 21 37.886487 26.0999999 23.5 26.0999999"></polygon>
            <path d="M27.2264161,29.5069946 C27.2264161,29.5069946 27.8921369,29.9402763 28.3532423,30.5079652 C28.8143476,31.0756541 29.0708375,31.7777503 29.0708375,31.7777503 C29.0708375,31.7777503 28.8217926,31.6329946 28.5912399,31.6329946 C28.3606872,31.6329946 28.1486268,31.7777503 28.1486268,31.7777503 C28.1486268,31.7777503 27.8729242,31.6329946 27.6423715,31.6329946 C27.4118188,31.6329946 27.2264161,31.7777503 27.2264161,31.7777503 C27.2264161,31.7777503 26.9851763,31.6329946 26.7546236,31.6329946 C26.524071,31.6329946 26.3042054,31.7777503 26.3042054,31.7777503 C26.3042054,31.7777503 26.0752137,31.6329946 25.844661,31.6329946 C25.6141084,31.6329946 25.3819947,31.7777503 25.3819947,31.7777503 C25.3819947,31.7777503 25.6794316,31.0756541 26.140537,30.5079652 C26.6016423,29.9402763 27.2264161,29.5069946 27.2264161,29.5069946 Z" id="Triangle" stroke="#FFFFFF"></path>
            <path d="M27.0604307,32.0422009 L27.0604307,34.2083835 C27.0604307,34.2083835 26.8317324,34.5491241 26.603034,34.5491241 C26.3743357,34.5491241 26.1456373,34.2083835 26.1456373,34.2083835" id="Path-2" stroke="#FFFFFF"></path>
            <path d="M25.5,21.5 L36.5,25.5" id="Line" stroke="#FFFFFF" stroke-linecap="square"></path>
            <path d="M24.5,25.5 L35.5,21.5" id="Line" stroke="#FFFFFF" stroke-linecap="square"></path>
        </g>
    </g>
</svg>