<?xml version="1.0" encoding="UTF-8" standalone="no"?>
<svg width="40px" height="40px" viewBox="0 0 40 40" version="1.1" xmlns="http://www.w3.org/2000/svg" xmlns:xlink="http://www.w3.org/1999/xlink">
    <!-- Generator: Sketch 43.2 (39069) - http://www.bohemiancoding.com/sketch -->
    <title>微信通知</title>
    <desc>Created with Sketch.</desc>
    <defs>
        <path d="M5,9.20227296 C5,7.54416328 6.35149617,6.19999981 7.99953774,6.19999981 L32.9897201,6.19999981 C34.646319,6.19999981 35.9892578,7.53817541 35.9892578,9.20227296 L35.9892578,28.0873751 C35.9892578,29.7454848 34.6477193,31.0896482 32.9895295,31.0896482 L15.0524902,31.0896482 L7.95239258,36.0896482 L8.6784668,31.0896482 L8.00377929,31.0896482 C6.3448378,31.0896482 5,29.7514726 5,28.0873751 L5,9.20227296 Z" id="path-1"></path>
    </defs>
    <g id="Page-1" stroke="none" stroke-width="1" fill="none" fill-rule="evenodd">
        <g id="Rectangle">
            <use fill="#2CB5DF" fill-rule="evenodd" xlink:href="#path-1"></use>
            <path stroke="#2CB5DF" stroke-width="1" d="M8.61411042,35.0121172 L9.1732769,31.161502 L9.25631855,30.5896482 L8.6784668,30.5896482 L8.00377929,30.5896482 C6.61869801,30.5896482 5.5,29.4730516 5.5,28.0873751 L5.5,9.20227296 C5.5,7.82337641 6.62456481,6.69999981 7.99953774,6.69999981 L32.9897201,6.69999981 C34.3722979,6.69999981 35.4892578,7.81643812 35.4892578,9.20227296 L35.4892578,28.0873751 C35.4892578,29.4699892 34.3709305,30.5896482 32.9895295,30.5896482 L15.0524902,30.5896482 L14.8941027,30.5896482 L14.7646036,30.6808436 L8.61411042,35.0121172 Z"></path>
        </g>
        <g id="微信通知" fill="#FFFFFF">
            <rect id="Rectangle-3" stroke="#FFFFFF" x="11.5435402" y="16.2199993" width="1.47097428" height="5.70939771"></rect>
            <rect id="Rectangle-4" x="25.1834835" y="18.1124656" width="4.01174804" height="1.4605436"></rect>
            <polyline id="Rectangle-4" points="26.0271997 21.5923344 29.3134313 23.8770618 28.4697151 25.0734691 25.1834835 22.7887417"></polyline>
            <polyline id="Rectangle-4" points="29.3134313 14.0890696 26.0271997 16.373797 25.1834835 15.1773898 28.4697151 12.8926623"></polyline>
            <path d="M14.4854887,16.1637856 C14.4854887,16.1637856 16.7253814,16.4467141 18.9652741,15.556436 C21.2051667,14.6661579 23.4450594,12.6026733 23.4450594,12.6026733 L23.4450594,25.614789 C23.4450594,25.614789 21.2051667,23.8412347 18.9652741,22.9509566 C16.7253814,22.0606785 14.4854887,22.0536766 14.4854887,22.0536766 L14.4854887,16.1637856 Z" id="Rectangle-2" stroke="#FFFFFF"></path>
        </g>
    </g>
</svg>