<?xml version="1.0" encoding="UTF-8" standalone="no"?>
<svg width="400px" height="400px" viewBox="0 0 400 400" version="1.1" xmlns="http://www.w3.org/2000/svg" xmlns:xlink="http://www.w3.org/1999/xlink">
    <!-- Generator: Sketch 43.2 (39069) - http://www.bohemiancoding.com/sketch -->
    <title>学生查询</title>
    <desc>Created with Sketch.</desc>
    <defs></defs>
    <g id="Page-1" stroke="none" stroke-width="1" fill="none" fill-rule="evenodd">
        <g id="学生查询" stroke="#515253">
            <path d="M200.386248,325.04878 L63.0569082,325.04878 C61.572492,257.741216 89.2031467,205.34902 137.152116,185 C150.351747,196.415622 166.955969,203.381822 184.744141,203.381822 C202.532312,203.381822 219.136534,196.415622 232.336165,185 C245.148664,190.437485 256.510399,198.162911 266.253534,207.849489 C256.335824,215.917223 250,228.218706 250,242 C250,252.351905 253.574898,261.868848 259.557496,269.38363 L238.955844,289.985281 L237.202796,288.232233 L200.386248,325.04878 Z" id="身体" stroke-width="8"></path>
            <path d="M238.955844,289.985281 L259.557496,269.38363 C253.574898,261.868848 250,252.351905 250,242 C250,217.699471 269.699471,198 294,198 C318.300529,198 338,217.699471 338,242 C338,266.300529 318.300529,286 294,286 C284.743157,286 276.153968,283.141429 269.067024,278.258877 L248.148232,299.17767 L249.930718,300.960155 L212.945436,337.945436 L200.217514,325.217514 L237.202796,288.232233 L238.955844,289.985281 Z" id="放大镜" stroke-width="8"></path>
            <circle id="头部" stroke-width="8" cx="185" cy="127" r="60"></circle>
            <path d="M184.718625,212.591704 L201.978089,232.590634 L184.22174,277.333967 L167.434328,232.619408 L184.718625,212.591704 Z" id="红领巾" stroke-width="6"></path>
        </g>
    </g>
</svg>