<?xml version="1.0" encoding="UTF-8" standalone="no"?>
<svg width="40px" height="40px" viewBox="0 0 40 40" version="1.1" xmlns="http://www.w3.org/2000/svg" xmlns:xlink="http://www.w3.org/1999/xlink">
    <!-- Generator: Sketch 43.2 (39069) - http://www.bohemiancoding.com/sketch -->
    <title>学生查询</title>
    <desc>Created with Sketch.</desc>
    <defs>
        <path d="M24.9471819,31.3219058 L27.5169439,28.7521439 C26.7705503,27.8144185 26.3245313,26.626783 26.3245313,25.3349358 C26.3245313,22.3028087 28.7816485,19.844784 31.8126563,19.844784 C34.843664,19.844784 37.3007813,22.3028087 37.3007813,25.3349358 C37.3007813,28.3670629 34.843664,30.8250876 31.8126563,30.8250876 C30.6581212,30.8250876 29.5868525,30.4684506 28.702929,29.8592941 L26.0937496,32.4684735 L26.3167415,32.6914654 L21.7018595,37.3063475 L20.1143043,35.7187923 L24.7291864,31.1039103 L24.9471819,31.3219058 Z" id="path-1"></path>
        <ellipse id="path-2" cx="18.2170739" cy="10.9856754" rx="7.98272727" ry="7.98567537"></ellipse>
        <polygon id="path-3" points="18.1819779 21.0925458 20.7662143 24.0880646 18.1103217 30.7829864 15.5977415 24.0880646"></polygon>
    </defs>
    <g id="Page-1" stroke="none" stroke-width="1" fill="none" fill-rule="evenodd">
        <g id="学生查询">
            <path d="M20.1356514,35.6974452 L3.00709817,35.6974452 C2.82194676,27.2990645 6.26832147,20.7617666 12.2490019,18.2226937 C13.8953934,19.6470913 15.9664399,20.5163072 18.1851605,20.5163072 C20.4038811,20.5163072 22.4749276,19.6470913 24.1213191,18.2226937 C25.7194236,18.9011623 27.1365741,19.8651113 28.3518364,21.0737656 C27.1147993,22.0804266 26.3245312,23.6153586 26.3245312,25.3349358 C26.3245312,26.626783 26.7705503,27.8144185 27.5169439,28.7521439 L24.9471819,31.3219058 L24.7291864,31.1039103 L20.1356514,35.6974452 Z" id="身体" stroke="#FFFFFF" fill="#2CB5DF"></path>
            <g id="放大镜">
                <use fill="#2CB5DF" fill-rule="evenodd" xlink:href="#path-1"></use>
                <path stroke="#FFFFFF" stroke-width="1" d="M24.9471819,30.6147991 L24.7291864,30.3968035 L24.375633,30.7503569 L19.7607509,35.3652389 L19.4071975,35.7187923 L19.7607509,36.0723457 L21.3483061,37.6599009 L21.7018595,38.0134543 L22.0554129,37.6599009 L26.6702949,33.0450188 L27.0238483,32.6914654 L26.8008563,32.4684735 L28.7725761,30.4967537 C29.6840501,31.0351349 30.7271833,31.3250876 31.8126563,31.3250876 C35.1198477,31.3250876 37.8007813,28.643164 37.8007813,25.3349358 C37.8007813,22.0267076 35.1198477,19.344784 31.8126563,19.344784 C28.5054648,19.344784 25.8245313,22.0267076 25.8245313,25.3349358 C25.8245313,26.5548253 26.1906306,27.7198115 26.8596092,28.7023718 L24.9471819,30.6147991 Z"></path>
            </g>
            <g id="头部">
                <use fill="#2CB5DF" fill-rule="evenodd" xlink:href="#path-2"></use>
                <ellipse stroke="#2CB5DF" stroke-width="1" cx="18.2170739" cy="10.9856754" rx="7.48272727" ry="7.48567537"></ellipse>
            </g>
            <g id="红领巾">
                <use fill="#FFFFFF" fill-rule="evenodd" xlink:href="#path-3"></use>
                <path stroke="#FFFFFF" stroke-width="1" d="M18.1819779,21.8579917 L20.1897389,24.1852888 L18.1232564,29.3944371 L16.1700809,24.190083 L18.1819779,21.8579917 Z"></path>
            </g>
        </g>
    </g>
</svg>