<?xml version="1.0" encoding="UTF-8" standalone="no"?>
<svg width="40px" height="40px" viewBox="0 0 40 40" version="1.1" xmlns="http://www.w3.org/2000/svg" xmlns:xlink="http://www.w3.org/1999/xlink">
    <!-- Generator: Sketch 43.2 (39069) - http://www.bohemiancoding.com/sketch -->
    <title>出入库</title>
    <desc>Created with Sketch.</desc>
    <defs>
        <polygon id="path-1" points="8 11 36 11 30 27 14 27"></polygon>
    </defs>
    <g id="Page-1" stroke="none" stroke-width="1" fill="none" fill-rule="evenodd">
        <g id="出入库">
            <g id="Rectangle">
                <use fill="#2CB5DF" fill-rule="evenodd" xlink:href="#path-1"></use>
                <path stroke="#2CB5DF" stroke-width="1" d="M8.72150023,11.5 L35.2784998,11.5 L29.6534998,26.5 L14.3465002,26.5 L8.72150023,11.5 Z"></path>
            </g>
            <polyline id="Path-2" stroke="#2CB5DF" stroke-linecap="round" points="2.21166992 8.99365234 5.02026367 8.99633789 8.67773438 11.4001465"></polyline>
            <circle id="Oval" stroke="#2CB5DF" fill="#2CB5DF" cx="16.5" cy="31.5" r="2.5"></circle>
            <path d="M16.5,16 L25.5,16" id="Line" stroke="#FFFFFF" stroke-width="1.5" stroke-linecap="round"></path>
            <polygon id="Triangle" stroke="#FFFFFF" fill="#FFFFFF" transform="translate(27.000000, 16.000000) rotate(90.000000) translate(-27.000000, -16.000000) " points="27 14 29 18 25 18"></polygon>
            <path d="M20,21 L29,21" id="Line" stroke="#FFFFFF" stroke-width="1.5" stroke-linecap="round"></path>
            <polygon id="Triangle" stroke="#FFFFFF" fill="#FFFFFF" transform="translate(19.000000, 21.000000) rotate(-90.000000) translate(-19.000000, -21.000000) " points="19 19 21 23 17 23"></polygon>
            <circle id="Oval" stroke="#2CB5DF" fill="#2CB5DF" cx="28" cy="31.5" r="2.5"></circle>
        </g>
    </g>
</svg>