<?xml version="1.0" encoding="UTF-8" standalone="no"?>
<svg width="40px" height="40px" viewBox="0 0 40 40" version="1.1" xmlns="http://www.w3.org/2000/svg" xmlns:xlink="http://www.w3.org/1999/xlink">
    <!-- Generator: Sketch 43.2 (39069) - http://www.bohemiancoding.com/sketch -->
    <title>库存站</title>
    <desc>Created with Sketch.</desc>
    <defs>
        <rect id="path-1" x="11" y="23" width="9" height="14" rx="1"></rect>
        <rect id="path-2" x="21" y="33" width="9" height="4" rx="1"></rect>
        <rect id="path-3" x="21" y="28.6000004" width="9" height="4" rx="1"></rect>
        <rect id="path-4" x="21" y="24.2299995" width="9" height="4" rx="1"></rect>
    </defs>
    <g id="Page-1" stroke="none" stroke-width="1" fill="none" fill-rule="evenodd">
        <g id="库存站">
            <path d="M32,20 L36.5,20 L20,4 L3.5,20 L8,20 L8,37 L32,37 L32,20 Z" id="Combined-Shape" stroke="#2CB5DF" fill="#2CB5DF"></path>
            <g id="Rectangle-2">
                <use fill="#2CB5DF" fill-rule="evenodd" xlink:href="#path-1"></use>
                <rect stroke="#FFFFFF" stroke-width="1" x="11.5" y="23.5" width="8" height="13" rx="1"></rect>
            </g>
            <path d="M11.9614258,36.0786133 L19.2653809,23.6469727" id="Path-2" stroke="#FFFFFF"></path>
            <path d="M11.6350098,23.5720215 L19.1777344,36.2893066" id="Path-3" stroke="#FFFFFF"></path>
            <g id="Rectangle-3">
                <use fill="#FFFFFF" fill-rule="evenodd" xlink:href="#path-2"></use>
                <rect stroke="#FFFFFF" stroke-width="1" x="21.5" y="33.5" width="8" height="3" rx="1"></rect>
            </g>
            <g id="Rectangle-3">
                <use fill="#FFFFFF" fill-rule="evenodd" xlink:href="#path-3"></use>
                <rect stroke="#FFFFFF" stroke-width="1" x="21.5" y="29.1000004" width="8" height="3" rx="1"></rect>
            </g>
            <g id="Rectangle-3">
                <use fill="#FFFFFF" fill-rule="evenodd" xlink:href="#path-4"></use>
                <rect stroke="#FFFFFF" stroke-width="1" x="21.5" y="24.7299995" width="8" height="3" rx="1"></rect>
            </g>
        </g>
    </g>
</svg>