<?xml version="1.0" encoding="UTF-8" standalone="no"?>
<svg width="40px" height="40px" viewBox="0 0 40 40" version="1.1" xmlns="http://www.w3.org/2000/svg" xmlns:xlink="http://www.w3.org/1999/xlink">
    <!-- Generator: Sketch 43.2 (39069) - http://www.bohemiancoding.com/sketch -->
    <title>微信站</title>
    <desc>Created with Sketch.</desc>
    <defs></defs>
    <g id="Page-1" stroke="none" stroke-width="1" fill="none" fill-rule="evenodd">
        <g id="微信站">
            <path d="M29.4109869,16.259371 C28.520303,10.457985 23.2005279,6 16.7710632,6 C9.71779977,6 4,11.3649933 4,17.983048 C4,20.4837779 4.81639779,22.8055934 6.21275662,24.7266467 C6.66409413,25.3475784 4,28.84786 4,28.84786 C4,28.84786 8.88469539,27.4370828 9.52366464,27.8510251 C11.5826868,29.1849177 14.0796489,29.9660959 16.7710632,29.9660959 C17.0912358,29.9660959 17.4086565,29.955041 17.7229155,29.9333157 C17.1437903,28.7323943 16.8211458,27.3977176 16.8211458,25.9918187 C16.8211458,24.7890746 17.057282,23.6384564 17.488128,22.5791173 C18.7969899,18.7609056 22.5906534,16 27.0666028,16 C27.8737765,16 28.6587616,16.0897874 29.4109869,16.259371 Z" id="Combined-Shape" stroke="#2CB5DF" fill="#2CB5DF"></path>
            <path d="M27.0666028,35.0283576 C29.3281808,35.0283576 31.4155705,34.3234951 33.0962529,33.1335292 C33.4813789,32.8608501 36.8499258,34.0823027 36.8499258,34.0823027 C36.8499258,34.0823027 34.9684211,31.4347301 35.3027058,30.9861129 C36.4559698,29.4384087 37.1332055,27.5510421 37.1332055,25.5141788 C37.1332055,20.2596429 32.626234,16 27.0666028,16 C21.5069716,16 17,20.2596429 17,25.5141788 C17,30.7687146 21.5069716,35.0283576 27.0666028,35.0283576 Z" id="右小圆" stroke="#FFFFFF" fill="#2CB5DF"></path>
            <circle id="小圆左眼" fill="#FFFFFF" cx="23" cy="23" r="1"></circle>
            <circle id="小圆右眼" fill="#FFFFFF" cx="31" cy="23" r="1"></circle>
            <circle id="大圆左眼" fill="#FFFFFF" cx="12.25" cy="13.25" r="1.25"></circle>
            <circle id="大圆右眼" fill="#FFFFFF" cx="22.25" cy="13.25" r="1.25"></circle>
        </g>
    </g>
</svg>